
        <svg viewBox="4.9788 2.8444 256.0002 228.3685" width="256.0002" height="228.3685" xmlns="http://www.w3.org/2000/svg">
          <path d="M 81.48 206.195 C 71.73 198.525 61.327 191.175 54.22 180.818 C 39.259 162.554 27.743 141.413 19.87 119.193 C 15.11 104.743 13.48 89.252 7.34 75.363 C 0.926 65.272 8.445 54.249 19.497 51.043 C 24.414 50.095 33.065 45.453 22.622 48.775 C 13.258 55.641 12.356 42.535 21.956 41.705 C 28.508 40.836 30.92 35.475 28.677 30.649 C 21.641 26.059 45.732 21.023 33.609 14.176 C 20.989 0.556 51.269 -2.066 43.797 13.405 C 42.011 25.3 64.963 11.22 59.633 24.959 C 65.048 31.558 79.905 26.464 79.532 35.716 C 87.418 36.258 90.125 42.889 97.52 43.399 C 105.197 46.865 119.1 49.591 121.708 58.236 C 114.098 64.259 96.481 45.793 95.63 62.468 C 97.932 87.106 97.345 112.485 106.356 135.946 C 110.618 150.15 120.956 161.331 130.287 172.396 C 139.22 183.23 151.317 190.862 163.65 197.283 C 174.465 202.383 186.125 205.763 197.915 207.889 C 202.695 204.233 211.136 190.639 218.59 196.367 C 218.95 202.816 203.794 209.838 217.879 209.125 C 226.157 206.627 231.892 215.519 238.705 207.496 C 244.983 214.932 264.795 202.749 260.33 217.946 C 254.288 221.844 245.48 219.489 239.432 224.852 C 229.46 219.869 221.52 229.305 210.476 228.115 C 198.216 230.311 185.738 231.195 173.309 231.213 C 152.913 229.604 132.087 228.925 112.685 221.823 C 101.752 218.647 91.087 212.421 81.48 206.195 Z M 98.704 213.663 C 109.376 218.273 119.813 223.138 131.511 224.609 C 150.069 227.186 169.234 231.161 187.857 227.539 C 179.429 223.734 170.712 229.017 162.316 224.819 C 152.246 226.983 141.438 224.263 131.196 222.922 C 119.556 217.738 106.99 214.174 96.089 207.437 C 82.461 202.462 103.132 213.82 106.813 214.743 C 115.327 219.573 97.448 212.263 94.923 210.256 C 87.791 206.254 86.883 207.091 94.219 211.152 C 95.696 212.016 97.155 212.925 98.704 213.663 Z M 78.394 199.31 C 88.739 203.142 78.348 192.038 73.614 192.68 C 71.514 189.037 65.591 186.735 69.769 184.78 C 62.256 187.39 61.896 174.86 58.366 176.653 C 50.414 174.142 55.272 165.248 45.797 159.783 C 44.933 154.027 36.387 149.038 33.667 140.36 C 32.464 135.914 24.009 123.157 29.201 135.03 C 33.621 146.46 41.396 156.257 47.87 166.033 C 52.892 175.343 58.83 185.081 67.978 190.888 C 71.065 193.85 74.039 198.381 78.393 199.31 L 78.394 199.31 Z M 48.603 166.595 C 48.961 165.032 50.493 169.975 48.603 166.595 Z M 90.786 203.9 C 93.074 202.874 87.49 202.606 90.786 203.9 Z M 96.396 205.948 C 95.815 203.122 93.833 207.53 96.396 205.948 Z M 103.426 208.878 C 106.767 205.691 98.266 206.868 103.426 208.878 Z M 115.471 215.591 C 117.504 212.59 108.964 214.461 115.471 215.591 Z M 92.343 199.468 C 97.533 196.106 85.627 199.421 92.343 199.468 Z M 97.613 202.096 C 97.462 200.323 95.736 202.893 97.613 202.096 Z M 123.958 218.541 C 128.195 221.216 148.696 224.4 135.86 219.639 C 133.707 220.091 112.057 213.512 123.958 218.541 Z M 82.135 185.964 C 81.723 184.187 75.555 183.996 82.135 185.964 Z M 94.395 193.119 C 97.592 190.889 87.771 191.399 94.395 193.119 Z M 104.713 199.442 C 109.297 197.716 97.286 197.709 104.713 199.442 Z M 77.139 180.53 C 82.109 184.341 97.189 181.02 84.75 178.255 C 79.094 175.24 66.343 173.175 75.035 180.073 L 77.139 180.53 Z M 111.705 201.625 C 113.777 198.1 103.02 199.61 111.705 201.625 Z M 101.202 193.28 C 113.352 196.714 90.982 185.59 98.202 192.012 L 99.805 192.738 L 101.202 193.28 Z M 122.26 205.45 C 133.768 205.56 111.862 203.862 122.26 205.45 Z M 72.713 173.872 C 72.261 171.728 69.875 174.05 72.713 173.872 Z M 141.726 216.37 C 142.033 212.5 137.972 219.254 141.726 216.37 Z M 92.356 185.898 C 91.656 183.858 88.76 185.813 92.356 185.898 Z M 73.804 172.526 C 80.41 172.128 64.754 169.616 73.804 172.526 Z M 51.826 158.322 C 51.003 155.152 44.64 152.628 51.826 158.322 Z M 109.521 194.936 C 108.311 193.555 108.951 195.236 109.521 194.936 Z M 145.426 216.973 C 145.316 214.86 143.471 217.769 145.426 216.973 Z M 106.343 191.653 C 106.991 188.933 100.707 190.828 106.343 191.653 Z M 79.591 174.697 C 84.509 174.173 71.711 171.375 79.591 174.697 Z M 124.843 202.816 C 132.506 199.781 117.375 201.337 124.843 202.816 Z M 101.308 186.841 C 110.135 187.977 90.8 180.831 99.366 186.199 L 101.308 186.841 Z M 131.988 205.705 C 140.235 200.782 137.515 217.247 145.977 207.098 C 154.32 201.004 138.77 214.631 149.05 208.184 C 156.491 203.207 167.476 210.544 174.415 212.931 C 179.403 212.689 184.256 217.247 189.375 214.473 C 199.223 211.818 170.112 210.538 177.742 205.835 C 168.732 208.459 162.076 202.71 157.642 196.936 C 147.532 194.601 135.847 189.436 130.799 180.484 C 128.739 177.13 133.769 180.962 129.021 175.469 C 122.933 170.054 119.893 163.9 115.805 157.316 C 110.92 154.713 110.345 147.043 109.854 157.062 C 109.894 150.738 103.956 146.481 102.504 148.247 C 102.478 142.158 108.861 145.212 104.394 140.707 C 103.434 134.396 100.268 127.819 99.319 120.691 C 97.843 117.258 99.109 109.902 94.272 117.676 C 92.512 125.896 93.69 107.58 96.43 113.616 C 100.026 107.456 95.134 108.181 94.938 109.032 C 97.28 103.834 96.423 96.457 94.324 99.269 C 95.573 93.756 96.299 78.985 92.461 81.607 C 94.788 75.84 96.875 55.227 86.764 63.089 C 82.671 63.147 75.577 64.574 72.229 66.241 C 82.737 72.035 71.169 68.333 66.886 67.411 C 66.33 72.773 62.093 70.458 56.796 70.51 C 65.258 71.556 52.676 79.16 47.832 76.206 C 41.528 79.214 53.266 86.734 47.956 89.061 C 48.611 92.56 38.304 87.794 39.109 95.889 C 32.994 93.311 38.272 105.488 41.332 101.369 C 51.736 104.187 48.656 110.602 48.917 116.702 C 47.223 120.252 40.547 108.352 47.432 108.902 C 41.998 100.079 41.424 105.71 36.911 109.81 C 35.865 110.105 48.42 115.642 40.541 118.376 C 47.472 119.449 47.675 125.517 49.088 129.356 C 53.253 133.696 52.395 124.561 57.386 129.781 C 54.226 125.131 40.671 116.681 51.586 119.391 C 51.526 114.715 49.61 110.941 52.958 111.032 C 56.274 105.036 49.486 125.824 56.954 118.2 C 59.019 117.298 59.537 112.197 63.251 118.684 C 68.645 123.994 65.2 127.837 57.588 122.973 C 58.948 127.596 67.769 129.243 66.108 136.47 C 67.866 142.826 70.326 140.484 72.47 140.118 C 74.15 146.291 75.107 141.753 75.185 138.81 C 82.881 140.46 81.076 145.01 83.488 148.188 C 88.791 150.58 75.897 131.964 85 142.59 C 94.578 151.241 88.596 154.85 79.998 153.465 C 85.438 153.025 87.189 160.822 93.998 160.547 C 100.203 163.502 104.408 174.841 93.71 170.119 C 90.002 166.771 76.864 162.645 87.596 169.008 C 97.496 173.598 105.369 176.338 114.922 182.1 C 121.756 186.978 124.71 192.567 127.3 193.674 C 121.553 196.419 109.986 191.483 118.577 189.973 C 113.215 188.998 107.187 186.285 112.319 192.961 C 116.687 196.61 127.784 196.223 129.779 196.635 C 128.092 200.35 125.196 200.645 129.844 200.932 C 124.658 203.698 131.512 204.13 131.989 205.705 L 131.988 205.705 Z M 121.382 175.75 C 118.224 172.448 117.407 166.269 120.82 171.642 C 122.573 172.349 126.425 181.747 121.382 175.75 Z M 155.929 197.695 C 157.897 197.565 155.987 199.191 155.929 197.695 Z M 116.401 167.655 C 116.275 162.665 117.537 171.505 116.401 167.655 Z M 112.967 163.038 C 108.992 155.368 117.969 165.209 112.967 163.038 Z M 71.352 134.319 C 73.687 133.696 72.503 138.306 71.352 134.319 Z M 104.473 152.268 C 105.905 146.886 106.154 156.781 104.473 152.268 Z M 81.076 135.998 C 79.429 133.03 84.523 138.785 81.076 135.998 Z M 101.151 142.433 C 97.391 134.011 103.819 137.829 101.988 143.813 L 101.151 142.433 Z M 66.527 119.343 C 64.847 116.578 62.067 108.469 62.963 105.992 C 63.767 110.026 71.536 123.346 66.768 111.511 C 61.505 101.591 73.066 114.727 74.256 117.206 C 74.812 119.665 71.006 116.533 73.582 122.306 C 68.881 115.734 70.809 125.936 66.527 119.343 Z M 55.829 111.968 C 56.267 105.54 58.275 116.375 55.829 111.968 Z M 60.642 113.628 C 62.937 108.778 64.532 120.39 60.642 113.628 Z M 49.061 104.671 C 45.078 100.707 42.194 97.059 49.25 102.211 C 51.964 102.316 43.209 93.914 49.905 99.543 C 56.94 100.826 53.376 111.086 49.061 104.671 Z M 55.142 104.514 C 57.458 102.219 56.372 106.77 55.142 104.514 Z M 58.889 105.71 C 55.377 99.138 63.146 108.47 58.889 105.71 Z M 51.448 98.603 C 39.868 88.289 65.997 103.99 53.338 100.511 L 51.448 98.603 Z M 84.633 117.879 C 79.618 114.877 83.299 96.726 85.013 109.137 C 89.885 107.56 84.743 115.552 88.373 115.473 C 87.805 120.513 86.177 122.327 84.633 117.879 Z M 96.907 125.137 C 97.397 119.665 97.94 128.879 96.907 125.137 Z M 94.776 123.025 C 95.325 120.691 94.828 125.778 94.776 123.025 Z M 53.716 95.215 C 46.276 84.948 75.341 105.598 58.484 97.818 C 56.724 97.354 54.6 97.19 53.716 95.215 Z M 77.355 107.745 C 76.65 99.1 78.925 109.175 77.355 107.745 Z M 95.298 119.258 C 96.684 114.335 95.404 122.516 95.298 119.258 Z M 54.861 91.298 C 59.282 90.35 73.183 99.06 60.419 93.783 C 59.001 92.213 55.973 92.926 54.861 91.297 L 54.861 91.298 Z M 92.832 110.222 C 93.305 101.382 95.476 104.945 92.852 111.491 L 92.832 110.221 L 92.832 110.222 Z M 58.15 88.219 C 59.954 85.576 53.362 76.272 59.097 84.883 C 61.577 86.851 66.27 88.179 62.125 89.009 C 68.644 94.758 60.537 90.566 58.15 88.219 Z M 90.955 107.463 C 92.199 97.393 92.055 113.361 90.955 107.463 Z M 54.383 78.92 C 55.763 78.33 55.115 80.756 54.383 78.92 Z M 62.943 84.014 C 65.145 79.39 67.003 89.166 62.943 84.014 Z M 87.078 97.438 C 87.058 95.666 87.535 100.021 87.078 97.438 Z M 85.678 94.346 C 82.33 86.08 88.798 98.72 85.678 94.346 Z M 83.624 88.924 C 83.064 85.51 85.534 93.214 83.624 88.924 Z M 86.972 83.484 C 84.671 79.435 89.877 65.632 90.459 74.192 C 88.032 80.862 89.759 84.59 91.445 75.644 C 94.572 68.608 90.772 89.54 86.972 83.484 Z M 90.412 62.958 C 91.414 61.728 90.635 64.441 90.412 62.958 Z M 84.666 176.168 C 83.305 174.978 84.841 176.921 84.666 176.168 Z M 96.501 182.152 C 103.085 183.846 103.053 181.131 97.101 180.32 C 93.904 177.346 83.801 174.187 92.845 179.954 C 93.441 181.472 95.331 181.432 96.501 182.152 Z M 73.131 166.627 C 76.753 169.336 86.79 174.291 78.296 167.662 C 81.16 164.332 72.816 162.561 75.583 160.332 C 68.54 156.021 70.023 156.407 74.962 156.545 C 66.5 152.758 76.184 153.046 75.727 151.105 C 72.464 150.463 59.516 145.349 67.134 151.523 C 59.392 147.579 65.289 152.994 62.949 152.425 C 55.029 150.267 69.999 158.455 61.693 156.421 C 66.232 160.017 73.915 165.641 63.609 160.226 C 62.256 162.181 70.986 165.144 73.13 166.627 L 73.131 166.627 Z M 85.508 173.742 C 100.555 178.588 78.125 167.811 85.508 173.742 Z M 148.872 212.126 C 149.068 209.138 146.818 214.676 148.872 212.126 Z M 155.385 214.866 C 158.857 211.506 155.529 220.228 161.139 214.043 C 161.197 209.615 160.969 207.001 154.692 212.381 C 152.958 213.343 152.188 217.416 155.385 214.867 L 155.385 214.866 Z M 52.003 149.942 C 50.936 145.75 44.528 145.768 52.003 149.942 Z M 58.953 154.498 C 56.37 150.216 49.739 150.621 58.953 154.498 Z M 98.521 178.359 C 102.387 181.793 116.262 180.877 103.211 178.785 C 101.281 175.927 90.943 176.614 98.521 178.359 Z M 152.906 211.952 C 158.85 206.962 147.146 214.175 152.906 211.952 Z M 165.272 220.445 C 165.31 218.843 162.709 221.145 165.272 220.445 Z M 165.292 218.202 C 171.876 211.232 158.916 218.614 165.292 218.202 Z M 34.896 135.62 C 29.286 127.616 31.411 124.019 25.997 117.48 C 24.969 112.478 16.712 101.139 21.727 113.151 C 26.317 120.181 27.677 131.061 34.897 135.62 L 34.896 135.62 Z M 163.225 215.985 C 175.343 208.157 158.256 212.578 163.225 215.985 Z M 172.472 219.607 C 178.54 214.401 168.633 218.521 172.472 219.607 Z M 49.942 141.092 C 51.676 138.509 45.457 140.759 49.942 141.092 Z M 170.542 217.135 C 176.414 213.35 169.189 213.931 169.477 217.481 L 170.542 217.135 Z M 90.844 166.902 C 90.642 164.339 87.739 167.118 90.844 166.902 Z M 95.768 169.734 C 94.199 166.569 93.362 170.231 95.768 169.734 Z M 179.965 219.693 C 187.491 214.264 175.408 218.652 178.389 220.726 L 179.965 219.693 Z M 177.082 218.3 C 183.215 213.166 170.614 220.575 177.082 218.3 Z M 191.806 228.101 C 195.921 225.348 186.805 227.212 191.806 228.101 Z M 53.716 139.229 C 59.228 140.464 75.758 152.81 66.009 140.086 C 61.014 138.608 64.009 126.399 58.915 128.557 C 62.335 134.272 61.725 136.697 54.545 133.102 C 45.529 128.694 49.478 135.28 51.245 137.098 C 48.837 137.647 54.422 139.184 53.715 139.228 L 53.716 139.229 Z M 28.586 119.384 C 29.573 115.296 19.49 96.915 23.826 110.17 C 25.388 112.949 25.226 118.212 28.586 119.384 Z M 74.712 147.821 C 71.868 145.448 74.575 147.481 74.712 147.821 Z M 81.702 149.451 C 81.702 145.121 73.974 147.691 81.702 149.451 Z M 142.32 187.658 C 141.163 184.701 137.75 187.592 142.32 187.658 Z M 145.23 189.782 C 144.797 188.128 143.548 190.103 145.23 189.782 Z M 169.254 204.92 C 171.563 203.214 166.37 204.699 169.254 204.92 Z M 41.135 122.588 C 47.745 120.03 34.052 120.763 41.135 122.588 Z M 136.983 182.968 C 136.906 178.692 132.766 184.035 136.983 182.968 Z M 38.525 116.499 C 42.769 115.069 34.595 115.559 38.525 116.499 Z M 50.845 122.469 C 50.772 121.064 49.544 123.006 50.845 122.469 Z M 201.145 214.637 C 206.605 213.532 219.049 217.417 221.056 213.193 C 214.426 213.029 198.124 208.51 197.352 214.264 L 198.804 214.494 L 201.146 214.637 L 201.145 214.637 Z M 54.761 123.457 C 54.861 119.121 51.381 123.294 54.761 123.457 Z M 22.369 100.982 C 20.898 92.722 16.771 99.732 22.369 100.982 Z M 30.091 102.924 C 30.19 100.269 23.021 100.537 30.091 102.924 Z M 34.505 105.095 C 33.23 104.061 33.511 106.395 34.505 105.095 Z M 62.289 122.914 C 63.598 121.71 59.19 122.025 62.289 122.914 Z M 31.569 100.204 C 30.818 93.966 22.617 99.269 31.569 100.204 Z M 15.724 89.924 C 15.501 87.047 14.18 91.009 15.724 89.924 Z M 18.084 88.147 C 17.699 84.732 16.057 88.577 18.084 88.147 Z M 31.099 95.914 C 36.605 93.756 21.073 91.441 29.974 95.509 L 31.099 95.914 Z M 205.325 203.534 C 208.849 200.304 200.852 202.534 205.325 203.534 Z M 226.374 214.441 C 227.787 210.27 222.816 214.991 226.374 214.441 Z M 32.429 89.094 C 33.012 85.054 28.062 89.898 32.429 89.094 Z M 13.906 76.684 C 12.912 70.982 13.049 60.97 22.564 64.351 C 9.864 66.875 31.359 80.141 28.645 69.666 C 33.987 69.929 39.095 66.509 36.289 71.693 C 46.817 70.536 54.109 61.408 64.276 62.69 C 72.194 61.638 80.852 60.846 89.386 57.655 C 96.402 57.151 103.156 49.598 99.313 45.119 C 89.746 44.309 79.727 45.505 69.154 47.611 C 57.437 50.043 46.792 54.672 34.968 56.661 C 23.439 58.211 37.283 60.924 33.98 61.532 C 27.97 63.618 41.154 65.024 33.202 67.227 C 28.292 66.293 23.178 64.606 25.277 59.427 C 14.239 60.865 4.535 65.442 13.259 76.676 L 13.907 76.682 L 13.906 76.684 Z M 40.514 63.134 C 43.097 53.601 54.376 70.982 44.751 64.403 C 43.606 63.539 41.709 62.839 40.514 63.134 Z M 41.016 58.51 C 44.751 55.732 42.998 60.074 41.016 58.51 Z M 45.757 58.59 C 46.099 54.202 56.62 60.911 47.491 60.166 L 45.757 58.589 L 45.757 58.59 Z M 52.244 55.981 C 54.618 53.207 52.932 58.439 52.244 55.981 Z M 53.906 54.87 C 57.855 50.129 76.249 51.841 62.785 54.404 C 59.175 51.684 56.41 56.006 53.906 54.87 Z M 77.916 51.168 C 77.322 38.213 89.85 55.765 77.916 51.168 Z M 84.731 51.128 C 87.221 44.603 94.401 48.507 85.888 49.814 C 86.07 50.514 85.633 53.189 84.731 51.128 Z M 29.744 85.746 C 37.184 81.188 21.844 81.791 29.744 85.746 Z M 35.249 87.27 C 37.859 84.498 29.573 86.145 35.249 87.27 Z M 19.033 75.768 C 23.283 72.498 13.998 74.526 19.033 75.768 Z M 238.797 213.251 C 238.921 209.458 235.547 214.957 238.797 213.251 Z M 216.466 198.008 C 217.1 193.648 213.596 198.388 216.466 198.008 Z M 244.937 214.723 C 250.882 214.743 262.951 212.871 250.017 212.878 C 247.984 213.193 238.189 213.128 244.937 214.723 Z M 40.089 84.594 C 44.902 84.267 47.615 79.29 39.153 79.572 C 26.043 78.219 50.72 84.065 37.473 82.391 C 35.695 83.568 39.983 84.921 40.089 84.594 Z M 44.326 86.74 C 43.822 83.653 42.834 88.38 44.326 86.74 Z M 49.354 73.334 C 51.44 70.744 46.464 72.641 49.354 73.334 Z M 33.346 46.584 C 41.939 43.668 53.683 40.385 57.738 48.024 C 53.611 43.061 56.071 38.169 59.968 45.434 C 65.48 52.778 68.238 42.093 64.655 39.627 C 68.743 44.701 73.385 47.102 67.388 39.949 C 73.908 32.108 54.343 40.975 49.897 40.883 C 47.759 41.843 27.808 45.97 33.347 46.584 L 33.346 46.584 Z M 38.381 36.947 C 43.28 33.253 55.324 39.15 47.595 33.271 C 46.837 32.605 30.673 37.731 38.381 36.947 Z M 56.24 37.685 C 61.968 37.829 53.769 29.982 60.595 33.539 C 59.477 29.878 52.644 29.191 49.303 27.727 C 47.413 31.075 53.146 37.731 56.24 37.685 Z M 41.513 21.474 C 43.495 18.787 38.035 22.841 41.513 21.474 Z M 48.813 23.219 C 58.051 21.997 46.457 19.244 46.947 23.122 L 48.812 23.219 L 48.813 23.219 Z M 35.183 12.561 C 28.676 4.067 47.418 13.987 40.806 5.093 C 35.242 0.667 29.9 10.083 35.183 12.561 Z M 118.653 57.518 C 121.637 52.233 106.341 50.39 116.646 55.646 C 117.594 55.961 117.38 57.883 118.653 57.518 Z" transform="matrix(1, 0, 0, 1, 7.105427357601002e-15, -1.7763568394002505e-15)"/>
        </svg>