<svg viewBox="0 0 67.967 91.016" xmlns="http://www.w3.org/2000/svg">
	<defs></defs>
	<path style="fill: rgb(83, 130, 161);"
		d="M 21.326 70.57 C 21.326 70.57 17.876 72.577 23.781 73.256 C 30.936 74.072 34.592 73.955 42.476 72.463 C 42.476 72.463 44.548 73.762 47.443 74.888 C 29.77 82.463 7.445 74.449 21.326 70.57"></path>
	<path style="fill: rgb(83, 130, 161);"
		d="M 19.167 60.686 C 19.167 60.686 15.297 63.551 21.207 64.162 C 28.849 64.951 34.884 65.015 45.328 63.004 C 45.328 63.004 46.772 64.468 49.043 65.269 C 27.675 71.517 3.875 65.762 19.167 60.686"></path>
	<path style="fill: rgb(248, 152, 29);"
		d="M 37.372 43.919 C 41.728 48.933 36.229 53.445 36.229 53.445 C 36.229 53.445 47.286 47.737 42.208 40.588 C 37.465 33.923 33.828 30.611 53.518 19.191 C 53.518 19.191 22.611 26.911 37.372 43.919"></path>
	<path style="fill: rgb(83, 130, 161);"
		d="M 60.747 77.882 C 60.747 77.882 63.3 79.985 57.936 81.613 C 47.734 84.703 15.476 85.637 6.516 81.736 C 3.294 80.334 9.335 78.39 11.235 77.982 C 13.217 77.552 14.349 77.632 14.349 77.632 C 10.767 75.109 -8.806 82.588 4.408 84.729 C 40.441 90.573 70.094 82.097 60.747 77.882"></path>
	<path style="fill: rgb(83, 130, 161);"
		d="M 22.985 50.445 C 22.985 50.445 6.577 54.342 17.175 55.757 C 21.649 56.357 30.57 56.221 38.878 55.525 C 45.669 54.952 52.487 53.734 52.487 53.734 C 52.487 53.734 50.093 54.76 48.361 55.942 C 31.698 60.325 -0.49 58.286 8.777 53.804 C 16.614 50.015 22.985 50.445 22.985 50.445"></path>
	<path style="fill: rgb(83, 130, 161);"
		d="M 52.42 66.898 C 69.358 58.097 61.526 49.638 56.06 50.778 C 54.72 51.056 54.123 51.298 54.123 51.298 C 54.123 51.298 54.62 50.519 55.57 50.182 C 66.384 46.38 74.701 61.395 52.079 67.342 C 52.079 67.342 52.342 67.107 52.42 66.898"></path>
	<path style="fill: rgb(248, 152, 29);"
		d="M 42.208 0.752 C 42.208 0.752 51.588 10.136 33.311 24.565 C 18.654 36.14 29.968 42.74 33.304 50.28 C 24.749 42.561 18.471 35.766 22.683 29.442 C 28.865 20.158 45.993 15.657 42.208 0.752"></path>
	<path style="fill: rgb(83, 130, 161);"
		d="M 24.65 90.748 C 40.908 91.789 65.875 90.171 66.466 82.478 C 66.466 82.478 65.33 85.394 53.03 87.711 C 39.153 90.322 22.037 90.017 11.886 88.344 C 11.887 88.343 13.964 90.063 24.65 90.748"></path>
</svg>